<mxfile host="app.diagrams.net" agent="Mozilla/5.0 (Windows NT 10.0; Win64; x64) AppleWebKit/537.36 (KHTML, like Gecko) Chrome/131.0.0.0 Safari/537.36" version="25.0.3">
  <diagram name="Page-1" id="wZQ-osu-UTrjxJQ7WKQO">
    <mxGraphModel dx="1247" dy="746" grid="1" gridSize="10" guides="1" tooltips="1" connect="1" arrows="1" fold="1" page="1" pageScale="1" pageWidth="827" pageHeight="1169" math="0" shadow="0">
      <root>
        <mxCell id="0" />
        <mxCell id="1" parent="0" />
        <mxCell id="uns0xi-RTQflqHLzz6Vr-13" value="Code Ennemi" style="rounded=1;whiteSpace=wrap;html=1;verticalAlign=top;fillColor=#dae8fc;strokeColor=#6c8ebf;" parent="1" vertex="1">
          <mxGeometry x="80" y="160" width="230" height="330" as="geometry" />
        </mxCell>
        <mxCell id="uns0xi-RTQflqHLzz6Vr-1" value="ajout d&#39;un pointeur sur une structure de données dans la liste &quot;update_list&quot;" style="rounded=1;whiteSpace=wrap;html=1;" parent="1" vertex="1">
          <mxGeometry x="100" y="390" width="180" height="60" as="geometry" />
        </mxCell>
        <mxCell id="uns0xi-RTQflqHLzz6Vr-2" value="0x0003" style="rounded=0;whiteSpace=wrap;html=1;" parent="1" vertex="1">
          <mxGeometry x="150" y="565" width="80" height="20" as="geometry" />
        </mxCell>
        <mxCell id="uns0xi-RTQflqHLzz6Vr-3" value="0x0123" style="rounded=0;whiteSpace=wrap;html=1;" parent="1" vertex="1">
          <mxGeometry x="150" y="585" width="80" height="20" as="geometry" />
        </mxCell>
        <mxCell id="uns0xi-RTQflqHLzz6Vr-5" value="0x0789" style="rounded=0;whiteSpace=wrap;html=1;" parent="1" vertex="1">
          <mxGeometry x="150" y="605" width="80" height="20" as="geometry" />
        </mxCell>
        <mxCell id="uns0xi-RTQflqHLzz6Vr-6" value="update_list" style="text;html=1;align=center;verticalAlign=middle;whiteSpace=wrap;rounded=0;" parent="1" vertex="1">
          <mxGeometry x="70" y="590" width="60" height="30" as="geometry" />
        </mxCell>
        <mxCell id="uns0xi-RTQflqHLzz6Vr-8" value="nb d&#39;octets du tableau (cet index inclus)" style="text;html=1;align=left;verticalAlign=middle;whiteSpace=wrap;rounded=0;" parent="1" vertex="1">
          <mxGeometry x="240" y="560" width="380" height="30" as="geometry" />
        </mxCell>
        <mxCell id="uns0xi-RTQflqHLzz6Vr-9" value="position x,y dans la tilemap (libre:2bits x:5bits, y:9bits)" style="text;html=1;align=left;verticalAlign=middle;whiteSpace=wrap;rounded=0;" parent="1" vertex="1">
          <mxGeometry x="240" y="580" width="320" height="30" as="geometry" />
        </mxCell>
        <mxCell id="uns0xi-RTQflqHLzz6Vr-11" value="pointeur vers la structure de données des tiles" style="text;html=1;align=left;verticalAlign=middle;whiteSpace=wrap;rounded=0;" parent="1" vertex="1">
          <mxGeometry x="240" y="600" width="410" height="30" as="geometry" />
        </mxCell>
        <mxCell id="uns0xi-RTQflqHLzz6Vr-12" value="" style="endArrow=none;html=1;rounded=0;" parent="1" edge="1">
          <mxGeometry width="50" height="50" relative="1" as="geometry">
            <mxPoint x="140" y="640" as="sourcePoint" />
            <mxPoint x="140" y="565" as="targetPoint" />
          </mxGeometry>
        </mxCell>
        <mxCell id="uns0xi-RTQflqHLzz6Vr-14" value="destruction de l&#39;ennemi" style="rounded=1;whiteSpace=wrap;html=1;" parent="1" vertex="1">
          <mxGeometry x="100" y="210" width="180" height="60" as="geometry" />
        </mxCell>
        <mxCell id="uns0xi-RTQflqHLzz6Vr-15" value="" style="endArrow=classic;html=1;rounded=0;exitX=0.5;exitY=1;exitDx=0;exitDy=0;entryX=0.5;entryY=0;entryDx=0;entryDy=0;" parent="1" source="uns0xi-RTQflqHLzz6Vr-22" target="uns0xi-RTQflqHLzz6Vr-1" edge="1">
          <mxGeometry width="50" height="50" relative="1" as="geometry">
            <mxPoint x="390" y="530" as="sourcePoint" />
            <mxPoint x="440" y="480" as="targetPoint" />
          </mxGeometry>
        </mxCell>
        <mxCell id="uns0xi-RTQflqHLzz6Vr-16" value="" style="endArrow=classic;html=1;rounded=0;exitX=0.5;exitY=1;exitDx=0;exitDy=0;dashed=1;" parent="1" source="uns0xi-RTQflqHLzz6Vr-1" edge="1">
          <mxGeometry width="50" height="50" relative="1" as="geometry">
            <mxPoint x="390" y="530" as="sourcePoint" />
            <mxPoint x="190" y="560" as="targetPoint" />
          </mxGeometry>
        </mxCell>
        <mxCell id="uns0xi-RTQflqHLzz6Vr-17" value="0x03" style="rounded=0;whiteSpace=wrap;html=1;" parent="1" vertex="1">
          <mxGeometry x="530" y="320" width="80" height="20" as="geometry" />
        </mxCell>
        <mxCell id="uns0xi-RTQflqHLzz6Vr-18" value="0x00" style="rounded=0;whiteSpace=wrap;html=1;" parent="1" vertex="1">
          <mxGeometry x="530" y="340" width="80" height="20" as="geometry" />
        </mxCell>
        <mxCell id="uns0xi-RTQflqHLzz6Vr-19" value="0x0001" style="rounded=0;whiteSpace=wrap;html=1;" parent="1" vertex="1">
          <mxGeometry x="530" y="360" width="80" height="20" as="geometry" />
        </mxCell>
        <mxCell id="uns0xi-RTQflqHLzz6Vr-20" value="0x0001" style="rounded=0;whiteSpace=wrap;html=1;" parent="1" vertex="1">
          <mxGeometry x="530" y="380" width="80" height="20" as="geometry" />
        </mxCell>
        <mxCell id="uns0xi-RTQflqHLzz6Vr-21" value="" style="endArrow=none;html=1;rounded=0;" parent="1" edge="1">
          <mxGeometry width="50" height="50" relative="1" as="geometry">
            <mxPoint x="520" y="460" as="sourcePoint" />
            <mxPoint x="520" y="320" as="targetPoint" />
          </mxGeometry>
        </mxCell>
        <mxCell id="uns0xi-RTQflqHLzz6Vr-22" value="récupération de la position&lt;div&gt;de l&#39;ennemi dans la tilemap&lt;/div&gt;" style="rounded=1;whiteSpace=wrap;html=1;" parent="1" vertex="1">
          <mxGeometry x="100" y="300" width="180" height="60" as="geometry" />
        </mxCell>
        <mxCell id="uns0xi-RTQflqHLzz6Vr-23" value="" style="endArrow=classic;html=1;rounded=0;exitX=0.5;exitY=1;exitDx=0;exitDy=0;entryX=0.5;entryY=0;entryDx=0;entryDy=0;" parent="1" edge="1">
          <mxGeometry width="50" height="50" relative="1" as="geometry">
            <mxPoint x="189.8" y="270" as="sourcePoint" />
            <mxPoint x="189.8" y="300" as="targetPoint" />
          </mxGeometry>
        </mxCell>
        <mxCell id="uns0xi-RTQflqHLzz6Vr-24" value="données des tiles pour l&#39;image &quot;detruit&quot;" style="text;html=1;align=center;verticalAlign=middle;whiteSpace=wrap;rounded=0;" parent="1" vertex="1">
          <mxGeometry x="420" y="330" width="90" height="60" as="geometry" />
        </mxCell>
        <mxCell id="uns0xi-RTQflqHLzz6Vr-25" value="position x,y issue de la wave, transposée en tile pos&lt;div&gt;(ref. haut gauche)&lt;/div&gt;" style="text;html=1;align=center;verticalAlign=middle;whiteSpace=wrap;rounded=0;" parent="1" vertex="1">
          <mxGeometry x="340" y="210" width="160" height="50" as="geometry" />
        </mxCell>
        <mxCell id="uns0xi-RTQflqHLzz6Vr-26" value="" style="endArrow=classic;html=1;rounded=0;exitX=0.5;exitY=1;exitDx=0;exitDy=0;dashed=1;entryX=1;entryY=0.5;entryDx=0;entryDy=0;" parent="1" source="uns0xi-RTQflqHLzz6Vr-25" target="uns0xi-RTQflqHLzz6Vr-22" edge="1">
          <mxGeometry width="50" height="50" relative="1" as="geometry">
            <mxPoint x="359.31" y="260" as="sourcePoint" />
            <mxPoint x="359.31" y="360" as="targetPoint" />
            <Array as="points">
              <mxPoint x="360" y="330" />
            </Array>
          </mxGeometry>
        </mxCell>
        <mxCell id="uns0xi-RTQflqHLzz6Vr-27" value="" style="endArrow=classic;html=1;rounded=0;exitX=0;exitY=0.5;exitDx=0;exitDy=0;dashed=1;entryX=1;entryY=0.5;entryDx=0;entryDy=0;" parent="1" source="uns0xi-RTQflqHLzz6Vr-24" target="uns0xi-RTQflqHLzz6Vr-1" edge="1">
          <mxGeometry width="50" height="50" relative="1" as="geometry">
            <mxPoint x="450" y="290" as="sourcePoint" />
            <mxPoint x="290" y="340" as="targetPoint" />
            <Array as="points">
              <mxPoint x="360" y="420" />
            </Array>
          </mxGeometry>
        </mxCell>
        <mxCell id="uns0xi-RTQflqHLzz6Vr-28" value="nb de tiles consécutifs" style="text;html=1;align=left;verticalAlign=middle;whiteSpace=wrap;rounded=0;" parent="1" vertex="1">
          <mxGeometry x="620" y="315" width="270" height="30" as="geometry" />
        </mxCell>
        <mxCell id="uns0xi-RTQflqHLzz6Vr-29" value="offset dans la tilemap" style="text;html=1;align=left;verticalAlign=middle;whiteSpace=wrap;rounded=0;" parent="1" vertex="1">
          <mxGeometry x="620" y="335" width="270" height="30" as="geometry" />
        </mxCell>
        <mxCell id="uns0xi-RTQflqHLzz6Vr-30" value="tile id dans le tileset" style="text;html=1;align=left;verticalAlign=middle;whiteSpace=wrap;rounded=0;" parent="1" vertex="1">
          <mxGeometry x="620" y="355" width="270" height="30" as="geometry" />
        </mxCell>
        <mxCell id="uns0xi-RTQflqHLzz6Vr-31" value="Peut fonctionner pour l&#39;image de destruction, mais aussi pour n&#39;importe quelle image d&#39;animation.&lt;div&gt;Il suffit que l&#39;objet utilise son propre algo d&#39;animation.&lt;/div&gt;&lt;div&gt;&lt;br&gt;&lt;/div&gt;&lt;div&gt;Permet d&#39;animer les tiles même en bordure d&#39;écran (affichage partiel sur le cotés ou en entrée ou sortie d&#39;écran)&lt;/div&gt;" style="rounded=0;whiteSpace=wrap;html=1;fillColor=#fff2cc;strokeColor=#d6b656;" parent="1" vertex="1">
          <mxGeometry x="480" y="30" width="300" height="120" as="geometry" />
        </mxCell>
        <mxCell id="uns0xi-RTQflqHLzz6Vr-32" value="tile id dans le tileset" style="text;html=1;align=left;verticalAlign=middle;whiteSpace=wrap;rounded=0;" parent="1" vertex="1">
          <mxGeometry x="620" y="375" width="270" height="30" as="geometry" />
        </mxCell>
        <mxCell id="uns0xi-RTQflqHLzz6Vr-33" value="tile id dans le tileset" style="text;html=1;align=left;verticalAlign=middle;whiteSpace=wrap;rounded=0;" parent="1" vertex="1">
          <mxGeometry x="620" y="395" width="270" height="30" as="geometry" />
        </mxCell>
        <mxCell id="uns0xi-RTQflqHLzz6Vr-34" value="0x0003" style="rounded=0;whiteSpace=wrap;html=1;" parent="1" vertex="1">
          <mxGeometry x="530" y="400" width="80" height="20" as="geometry" />
        </mxCell>
        <mxCell id="uns0xi-RTQflqHLzz6Vr-35" value="..." style="rounded=0;whiteSpace=wrap;html=1;strokeColor=none;fillColor=none;" parent="1" vertex="1">
          <mxGeometry x="530" y="420" width="80" height="20" as="geometry" />
        </mxCell>
        <mxCell id="KTYUDWkKEU7xfHyUNPRZ-1" value="Boucle principale" style="rounded=1;whiteSpace=wrap;html=1;verticalAlign=top;fillColor=#ffe6cc;strokeColor=#d79b00;" parent="1" vertex="1">
          <mxGeometry x="80" y="720" width="560" height="560" as="geometry" />
        </mxCell>
        <mxCell id="KTYUDWkKEU7xfHyUNPRZ-2" value="Mise à jour du scroll" style="rounded=1;whiteSpace=wrap;html=1;" parent="1" vertex="1">
          <mxGeometry x="130" y="1180" width="120" height="60" as="geometry" />
        </mxCell>
        <mxCell id="KTYUDWkKEU7xfHyUNPRZ-8" style="edgeStyle=orthogonalEdgeStyle;rounded=0;orthogonalLoop=1;jettySize=auto;html=1;exitX=0.5;exitY=1;exitDx=0;exitDy=0;" parent="1" source="KTYUDWkKEU7xfHyUNPRZ-3" target="KTYUDWkKEU7xfHyUNPRZ-6" edge="1">
          <mxGeometry relative="1" as="geometry" />
        </mxCell>
        <mxCell id="KTYUDWkKEU7xfHyUNPRZ-3" value="Lecture de l&#39;update_list" style="rounded=1;whiteSpace=wrap;html=1;" parent="1" vertex="1">
          <mxGeometry x="130" y="790" width="120" height="60" as="geometry" />
        </mxCell>
        <mxCell id="KTYUDWkKEU7xfHyUNPRZ-4" value="" style="endArrow=classic;html=1;rounded=0;exitX=0.5;exitY=0;exitDx=0;exitDy=0;dashed=1;" parent="1" source="KTYUDWkKEU7xfHyUNPRZ-3" edge="1">
          <mxGeometry width="50" height="50" relative="1" as="geometry">
            <mxPoint x="200" y="460" as="sourcePoint" />
            <mxPoint x="190" y="650" as="targetPoint" />
            <Array as="points" />
          </mxGeometry>
        </mxCell>
        <mxCell id="KTYUDWkKEU7xfHyUNPRZ-12" value="&#xa;&lt;span style=&quot;color: rgb(0, 0, 0); font-family: Helvetica; font-size: 12px; font-style: normal; font-variant-ligatures: normal; font-variant-caps: normal; font-weight: 400; letter-spacing: normal; orphans: 2; text-align: center; text-indent: 0px; text-transform: none; widows: 2; word-spacing: 0px; -webkit-text-stroke-width: 0px; white-space: normal; text-decoration-thickness: initial; text-decoration-style: initial; text-decoration-color: initial; float: none; display: inline !important;&quot;&gt;tile partiellement ou entierement en zone visible ?&lt;/span&gt;&#xa;&#xa;" style="edgeStyle=orthogonalEdgeStyle;rounded=0;orthogonalLoop=1;jettySize=auto;html=1;exitX=1;exitY=0.5;exitDx=0;exitDy=0;entryX=0.5;entryY=0;entryDx=0;entryDy=0;labelBackgroundColor=none;" parent="1" source="KTYUDWkKEU7xfHyUNPRZ-5" target="KTYUDWkKEU7xfHyUNPRZ-11" edge="1">
          <mxGeometry x="0.5714" y="40" relative="1" as="geometry">
            <mxPoint as="offset" />
          </mxGeometry>
        </mxCell>
        <mxCell id="KTYUDWkKEU7xfHyUNPRZ-5" value="mise à jour de la référence du tile dans la tilemap en x,y" style="rounded=1;whiteSpace=wrap;html=1;" parent="1" vertex="1">
          <mxGeometry x="300" y="880" width="120" height="60" as="geometry" />
        </mxCell>
        <mxCell id="KTYUDWkKEU7xfHyUNPRZ-7" style="edgeStyle=orthogonalEdgeStyle;rounded=0;orthogonalLoop=1;jettySize=auto;html=1;exitX=1;exitY=0.5;exitDx=0;exitDy=0;" parent="1" source="KTYUDWkKEU7xfHyUNPRZ-6" target="KTYUDWkKEU7xfHyUNPRZ-5" edge="1">
          <mxGeometry relative="1" as="geometry" />
        </mxCell>
        <mxCell id="KTYUDWkKEU7xfHyUNPRZ-17" style="edgeStyle=orthogonalEdgeStyle;rounded=0;orthogonalLoop=1;jettySize=auto;html=1;exitX=0.5;exitY=1;exitDx=0;exitDy=0;entryX=0.5;entryY=0;entryDx=0;entryDy=0;" parent="1" source="KTYUDWkKEU7xfHyUNPRZ-6" target="KTYUDWkKEU7xfHyUNPRZ-19" edge="1">
          <mxGeometry relative="1" as="geometry" />
        </mxCell>
        <mxCell id="KTYUDWkKEU7xfHyUNPRZ-6" value="Pour chaque tile" style="rounded=1;whiteSpace=wrap;html=1;" parent="1" vertex="1">
          <mxGeometry x="130" y="880" width="120" height="60" as="geometry" />
        </mxCell>
        <mxCell id="KTYUDWkKEU7xfHyUNPRZ-9" value="Mise à jour des pixels data dans le buffer de scroll" style="rounded=1;whiteSpace=wrap;html=1;" parent="1" vertex="1">
          <mxGeometry x="300" y="970" width="120" height="60" as="geometry" />
        </mxCell>
        <mxCell id="KTYUDWkKEU7xfHyUNPRZ-13" style="edgeStyle=orthogonalEdgeStyle;rounded=0;orthogonalLoop=1;jettySize=auto;html=1;exitX=0;exitY=0.5;exitDx=0;exitDy=0;" parent="1" source="KTYUDWkKEU7xfHyUNPRZ-11" target="KTYUDWkKEU7xfHyUNPRZ-9" edge="1">
          <mxGeometry relative="1" as="geometry" />
        </mxCell>
        <mxCell id="KTYUDWkKEU7xfHyUNPRZ-14" value="Oui" style="edgeLabel;html=1;align=center;verticalAlign=middle;resizable=0;points=[];labelBackgroundColor=none;" parent="KTYUDWkKEU7xfHyUNPRZ-13" vertex="1" connectable="0">
          <mxGeometry x="0.3" relative="1" as="geometry">
            <mxPoint x="19" y="-10" as="offset" />
          </mxGeometry>
        </mxCell>
        <mxCell id="KTYUDWkKEU7xfHyUNPRZ-15" style="edgeStyle=orthogonalEdgeStyle;rounded=0;orthogonalLoop=1;jettySize=auto;html=1;exitX=0.5;exitY=1;exitDx=0;exitDy=0;entryX=0.75;entryY=1;entryDx=0;entryDy=0;" parent="1" source="KTYUDWkKEU7xfHyUNPRZ-11" target="KTYUDWkKEU7xfHyUNPRZ-6" edge="1">
          <mxGeometry relative="1" as="geometry" />
        </mxCell>
        <mxCell id="KTYUDWkKEU7xfHyUNPRZ-18" value="Non" style="edgeLabel;html=1;align=center;verticalAlign=middle;resizable=0;points=[];labelBackgroundColor=none;" parent="KTYUDWkKEU7xfHyUNPRZ-15" vertex="1" connectable="0">
          <mxGeometry x="0.3333" y="1" relative="1" as="geometry">
            <mxPoint x="280" y="-11" as="offset" />
          </mxGeometry>
        </mxCell>
        <mxCell id="KTYUDWkKEU7xfHyUNPRZ-11" value="" style="rhombus;whiteSpace=wrap;html=1;" parent="1" vertex="1">
          <mxGeometry x="480" y="970" width="60" height="60" as="geometry" />
        </mxCell>
        <mxCell id="KTYUDWkKEU7xfHyUNPRZ-16" value="" style="rounded=0;whiteSpace=wrap;html=1;fillColor=none;dashed=1;" parent="1" vertex="1">
          <mxGeometry x="270" y="860" width="330" height="220" as="geometry" />
        </mxCell>
        <mxCell id="KTYUDWkKEU7xfHyUNPRZ-20" style="edgeStyle=orthogonalEdgeStyle;rounded=0;orthogonalLoop=1;jettySize=auto;html=1;exitX=0.5;exitY=1;exitDx=0;exitDy=0;entryX=0.5;entryY=0;entryDx=0;entryDy=0;" parent="1" source="KTYUDWkKEU7xfHyUNPRZ-19" target="KTYUDWkKEU7xfHyUNPRZ-2" edge="1">
          <mxGeometry relative="1" as="geometry" />
        </mxCell>
        <mxCell id="KTYUDWkKEU7xfHyUNPRZ-19" value="réinit de update_list&lt;div&gt;avec 0x0000 comme offset de fin&lt;/div&gt;" style="rounded=1;whiteSpace=wrap;html=1;" parent="1" vertex="1">
          <mxGeometry x="130" y="1090" width="120" height="60" as="geometry" />
        </mxCell>
        <mxCell id="MRhIiRHVBGv19Umoxs4_-1" value="0xff" style="rounded=0;whiteSpace=wrap;html=1;" vertex="1" parent="1">
          <mxGeometry x="530" y="440" width="80" height="20" as="geometry" />
        </mxCell>
        <mxCell id="MRhIiRHVBGv19Umoxs4_-2" value="répétition de la structure" style="text;html=1;align=left;verticalAlign=middle;whiteSpace=wrap;rounded=0;" vertex="1" parent="1">
          <mxGeometry x="620" y="415" width="270" height="30" as="geometry" />
        </mxCell>
        <mxCell id="MRhIiRHVBGv19Umoxs4_-3" value="end of data" style="text;html=1;align=left;verticalAlign=middle;whiteSpace=wrap;rounded=0;" vertex="1" parent="1">
          <mxGeometry x="620" y="435" width="270" height="30" as="geometry" />
        </mxCell>
        <mxCell id="MRhIiRHVBGv19Umoxs4_-4" value="" style="shape=image;verticalLabelPosition=bottom;labelBackgroundColor=default;verticalAlign=top;aspect=fixed;imageAspect=0;image=data:image/png,iVBORw0KGgoAAAANSUhEUgAAAHMAAACRCAYAAADwz4dvAAAAAXNSR0IArs4c6QAAAARnQU1BAACxjwv8YQUAAAAJcEhZcwAADsMAAA7DAcdvqGQAAAqUSURBVHhe7Z09aCLbG8afe1sh4ELcZmFjGpv/NkKKW0ws0opbTB+vRdog3BSCtZDCQEi7Ra72U6ykTZFYbBGwyTY2McU2m4UEAtb/W5z5PM7HmZkzHzn7/kBYHXXHPGfOx7zPPPPHx48f/w9CCf7kXyDeLiSmQpCYCkFiKgSJqRB/yJnNahhe9tHcMp8+zqD/M+Hew8M+U73VcXLJbyOSIEVMbTBFv7HEeW+EOb8xkCLF5Bof1lhcHGJ0431XGNpgiv5exXy2wkw/QVTzzRop3ezudgXr5W0MIYtmjlFPh66bj6snNI/H6PJvC6I3Rn/vCTPz87PHOjqXQ2j8+3JGgpgaPrzjX3PTxdgwYFiPjR/t3h7jDyqThxes+dcC0TDcr2N999U+EiezBdZbDey3uLfmTAoxLRFYd1XZ65uCTDG0f1QXY6OD2t25cxRwXXG9fYCXC1cLP8tfTu2vBiqP94Ld5C6qW2ssv1m/oovxcRMVVFDd5d6aMynEnOBE16Hr51i8AmtbMGfs0QYHqL8u8OU0uANeXTnvn3xfATufcjo6nR6hvwcsZmJSOmgYXhowjA5wpWP2CNTeF9vRphAzmt3tCvD8Q3wsjdXdpcVqjDp0/RrVYwPjHv+eICpoHrPJm67rOLlkQ83TT+FfmgmZivnwK6Y0u1VUXl/wwL+eORPcCx9ZD3gxeyJnFs663pf8d9xDpmLOvy2x3ukItnhzYlHErLg1xMGOexxkdM9YN+zd/zlul2tU9o7suQEbTpa4jbG0yQIJ60y2Zmssz3HoNza2hpgeN2GtyPC6MNej/FqPtXbf75AOm5jV7ecB68zeGEa77rtfnnWm/ZuKRYKYCmM2xKerIk5sxIfE9MXpNVZvREiQmGqR6QSIyBcSUyFITIUgMRWCxFQIElMhJIlpVRDMR1AZqzd21TPZZ8RO9REiSBFTGxyhiQXOrSpEpP+nJLSGmIY1vkAEG68f1v8ZWKxPjhQx355thJ1bNf4Glo/8lmi0wREaS6t+O8Nqp4PpQFCSmxEO7dKbjtlzE/04jSEECWKG20a0wdRphW3n1LZDAbaR1hBH29fQeyP84LcJMD89dJ14Z+WzynYym0HsMmEIKcQUsI1wxif9asV9R0G2kZsRDksxFGjYb1Sw+i5nX1KIGWUbYfXJ1VW4BbE424gkemN0dtbxbCe9sdnw+2higa+STuSnEDMDcrWNSKA1xLRd9zRIIS5PHIPbbRV9ScNLucQszDaSALPWCY99JAGX91ihhg8SbJoZijnHj2eg/j+zzZmtOJgCbSMB+NtGvELyDgQbqyuNmAPItJxkKCYw+YdN2w3DgHFcxfXFYqMbrbetmWyI9UQ6zgy6swPA2kfuDz/5ziZsvNGr22E2GGfSx038YB1xAN598K4j7fGSPeJf1hEMFafDSGUbMd0KzyIXUcmBxPQlnW3ENnsJXQ0nDxJTITIdM4l8ITEVgsRUCBJTIUhMhSAxFULS0oTSRsqAFDF/v7SRqMbrvcrM7yqyLJDSzb4920i6tJFw24iG4aUrx+FiAez1N0/WZ4AEMcNtI+qljUTYRnqf0dxa4drafjPC9aOrepQhKcQUsI0omTYSjva+Bri+SxtMWWWGr55kQAoxo2wjqqeNmATZRsxSV7+xxPnFAuutKpJZvsRJIWY06qaNmATZRnY6MPZfmI+4N8I8JwdFpmLGthHm9KM3iZM2YhJgG5n/fGJZeq7hRHtfi9eoE5KpmGqmjUTYRi7vsYJ77O/i8548O2UYEtaZv1/aSPfMtJt4cH+H9/uTFLiTIEFMhUllG8kfEtOXdLaRoiAxFSLTCRCRLySmQpCYCkFiKgSJqRAkpkJIElMwsIHSRjJFiphvNm0E4pfeeeATQ+J+3qxzBhfskyFFzLdnG7HoYtyuYfUYs7oD8xyzXUKL14C7Z2adM6BgnxQJYobbRkqZNmLSPeug/niNr7/4LRnSGuLgXTYx4CnEFLCNlDVtBJZDYIVZjCNKBtpfDVSegX3XHEM4QyiCFGJG2UbKnDYitm+hbDXRT9Cj7G5XgJ0G8K/ZwCW691KImQE52Ua0wRGaz7Pk1RAuZev8roZODEHXd1+c2qnp3ovlcgigXGLmYhthQUp2joFhsKucdzqbuQSCzL8thRvhw6914jSvKDIUs6xpI5wBWtdxfrdmrnSXsxBhthEPGoZ/NzetmgFLHmalOXAaTYBlJQkZilnmtBExgtJGPDN0c783liZBaSM3IxxePaF5bH7+uIGln2UlAVScDiOVbYTSRkpCOtsIpY0Qqcl0zCTyhcRUCBJTIUhMhSAxFYLEVAhJS5OowAY/igyoUBMpYv5+aSMW1vfwn6e0kRxJlzZiwUppK3YO1nmV0kbiFnmlkqSO2hriaA9YzO69r1PaSAG2ERfx00ZY2QvuIrO1hdJG2L/zs43A0yPEThvpfUYT4b+L0kaSdHeJSZo2wuyZi39DJnuUNpKXbcSPGGkjvU+oo+IUl42O8/ysS2kjjLxsIz4EWDd8bSPuWz/pOsvOwxqLC9MIXWDaSKZi4maEw4sFarY1ZHM2W4xthJthB1g3gmwj4UxwYoYjWkcuEhS4kyDlpIGypLKN5A+J6Us620hRkJgKke2YSeQKiakQJKZCkJgKQWIqBImpEJLEpLSRMiBlnSlsG+mNWTXBFR5ciG3EDAXeQMi7xOADhOOcXLCvRQHYSXk9xRXcLqQcmW/ONrJxstysyf4Sq9dogyk6mLlsJyvU24IuCS7n4fyuhs6G+yIZEsQMt42UOW3EprWPhtvqEcHudsUrvHAd1qwM3X21j8T56TVWWw3sJ7himyeFmAK2kTKnjbjodpqA6w8cxeT7ChXbpBVw5XQITz/djeYBL68VVCXYEFKIGWUbEUv0KM42YtIa4mBH/KgErG56BrSd0p3YWDvH7XKN+r7TrWqDI89NB9KQQswMEO6u5NHtxDuqAMvfY/UoMzzt9TfqtEHMT79gASd25gjXWLyu8SI2XIdSLjHzto2YDoNYZi573LOceWYxequJz0LLLK9n9/AUqG494UdsA/YmGYpZ1rQRB3ZUXm84DCx8bSMmnviX3ifUwR1dAWkjXpgVFRFDkSgZilnytJGgG7K58LeNzDHquW0hBox2bfPyhqC0EUtkw7C7atH1aRRSThooSyrbCKWNlIR0thFKGyFSk+mYSeQLiakQJKZCkJgKQWIqBImpEJKWJpQ2UgakiClsG/FQsJge60h4Wgjgvle2z320IdqAs0VKN/vmbCPoYtyGy7oBn7SRlVNU1zezGNLcpCYrJIgZbhvZuBZyo+5XhG1kghOXiYoF5tfwQYJ1o0hSiClgG3kjaSOqkELMKNtI2dNGLCwPD1/XrKNj9xg+t8hIeJOaLEkhZjTlThthdM/67A6DnjHPnURiJXi5BE15k5qsyFTMsqeNMCOzNxnEF6vQHECcm9RkSaZiljltxBZSwE3ePeug/rrEra+9JL7VMiskrDPZejHQ8sGvyez1Gp8smV/648Y+WVhrRf7yBW4N6b28IMf9jkCCmERZyLSbJfKFxFQIElMhSEyFIDEVgsRUCBJTIUhMhSAxFYLEVAgSUyFITIUgMRWCxFSI/wAmjeh/JxHkegAAAABJRU5ErkJggg==;" vertex="1" parent="1">
          <mxGeometry x="800" y="320" width="115" height="145" as="geometry" />
        </mxCell>
        <mxCell id="MRhIiRHVBGv19Umoxs4_-5" value="&lt;b&gt;exemple :&lt;/b&gt;" style="text;html=1;align=left;verticalAlign=middle;whiteSpace=wrap;rounded=0;" vertex="1" parent="1">
          <mxGeometry x="800" y="290" width="270" height="30" as="geometry" />
        </mxCell>
        <mxCell id="MRhIiRHVBGv19Umoxs4_-6" value="" style="shape=image;verticalLabelPosition=bottom;labelBackgroundColor=default;verticalAlign=top;aspect=fixed;imageAspect=0;image=data:image/png,iVBORw0KGgoAAAANSUhEUgAAAkMAAAJDCAYAAAAIORCbAAAAAXNSR0IArs4c6QAAAARnQU1BAACxjwv8YQUAAAAJcEhZcwAADsMAAA7DAcdvqGQAABleSURBVHhe7d1BiJzneQfwSUUp7qVlexARMtpikC46CQK1MLtUBYkQ4UPA0DVGpCJpQAruHhohYVpCSqlpenBMJEiTiiCCVTDkEBSCFmpYYexAQCddZDCMiHARhSWFUFOKSQ/Jmt1X0kiR32fX7/x/P5jLMyCGb5755r8zo+//maWlpV9PAABCfWZpaenXv/rVr9o5AECEj8PQ888/394HADD3toWhhY3F9v5h3Jq+3466Orz4TDsayrXra+2oq8VDtcen+vhvLEwn71x9rx13c+fe3XbU1fLScjsayvR27eu3mv3fXaMff3bXxsJ08nvtEAAgyUPD0Muvf+njGyRZu/3GQ28w79qdt/8keGAY2gxAly5dau+CubZ5wr906dJ9t633wzyy/6S6LwwJQqTb3P0zZ858fNs6h3lm/0l0XxiaWHrCbX0DOH7oxfZumGv2n0QPDEObLwRI0578fS1AkuOHXtx2s/+kuC8Mvf7yD9oRxHjYbyYm/kgglP0nwX1hCNI96DcTvjYgld8MkUAYghnarw1gnrX/ld7Ok0IYghnaNwe/oWDe+a/0JHpgHcfLr39p21cFI/yOqLqOo7ouoLqu4cDe/e2oq5MnjrejoWzWEazdfmPm1wFnzpx5or+Wq59fdRy7q/r5PXvqdDvqauv+Tx7yldgn+aq4ui7D/sxWvT+j21iYPjwMbSUM1b/Yql8MwtBs7ZvBLE/yZlD9/ApDu6v6+a1+M9vaTTbrNfAkuz8Rhh5p9P0Z3UPD0IiEodmEodmqiyqrn19haHdVP7/Vb2bV+y8MzTb6/oxOUSsAEE8YAgCiCUMAQDRhCACIJgwBANGEIQAgmjAEAEQThgCAaMIQABDNFagfU/UVTquvQFp9heLDi7VXmK1WfQXeatVX+GW26vND9RXeq/e/+vFXn//Xb6y3o6G4AvVsrkANAMQThgCAaMIQABBNGAIAoglDAEA0YQgAiCYMAQDRhCEAIJowBABEE4YAgGjCEAAQbVs32ZdPfa29v5vTn3+5HXVV3c1U3U1zYO/+dtRV9fGp9vev/U076ur7V76jm2mOVXfnVR9/+7+7rl1fa0ddVZ+fq7vzqh9/tX1H9vhkCADIJgwBANGEIQAgmjAEAEQThgCAaMIQABBNGAIAoglDAEA0YQgAiCYMAQDRhCEAIJpussdU3W1U3X1Trfr4j97NVG307qfqbq9q1d1Pl3/6ejvqqnr/q/fT/sxWfX6ufn+sfn51kwEA8YQhACCaMAQARBOGAIBowhAAEE0YAgCiCUMAQDRhCACIJgwBANGEIQAgmjAEAESbm26yatXdOqN3k1XTzTTfLl653I66Wl5abkdD0c032517d9tRV9X7M3o32eiPXzcZABBPGAIAoglDAEA0YQgAiCYMAQDRhCEAIJowBABEE4YAgGjCEAAQTRgCAKIJQwBANN1kj6m6W+rWtLbbpbo7prob6Oyp0+2oq42FaWk3U/X+VKvez/Ub6+2oq+r9GV31/lerfn1V73/1+bm62+vwYu2/X338dZMBAPGEIQAgmjAEAEQThgCAaMIQABBNGAIAoglDAEA0YQgAiCYMAQDRhCEAIJowBABE27Fusm+ufrsddVXd7TJ690210Y9/dTdT9eOvdvHK5XbU1fLScjvqqro7aXTV+1+t+vVVvf8H9u5vR12N3h1Z/f6omwwAiCcMAQDRhCEAIJowBABEE4YAgGjCEAAQTRgCAKIJQwBANGEIAIgmDAEA0YQhACDatm6yhY3F9v5hXLu+1o66qu6+qe5eWb+x3o6GUt19s7EwHXr/R9+f6m6m6tfv6HSTzVb9/lJt8VBtN9/o3X8bC1OfDAEA2YQhACCaMAQARBOGAIBowhAAEE0YAgCiCUMAQDRhCACIJgwBANGEIQAgmjAEAESbm26y0VV3S01v1/771d1A1cdn35E9pfuv22i2H15/tR119dziC+2oq3nY/6uvvdWOh1HdXXjxyuV21FV1N1/167e6m6z6/Hl05aBPhgCAbMIQABBNGAIAoglDAEA0YQgAiCYMAQDRhCEAIJowBABEE4YAgGjCEAAQTRgCAKJt6yZ75+p77f3dVHf3VKvupmG26u6hjYVp6f7fuXe3HQ1leWm5HXW1fmO9HXX1iw/fbUddPf3Us+2oq+rjX93NV92tVt29WN3tVW3041P9+HWTAQDxhCEAIJowBABEE4YAgGjCEAAQTRgCAKIJQwBANGEIAIgmDAEA0YQhACCaMAQARNvWTVbZTVOtujusuhuL2c5/9yvtqKtzF17RTTbD6N1eoz/+aiurx+z/DAf27m9HXVV3e1V3/1Ufn+pu042FqU+GAIBswhAAEE0YAgCiCUMAQDRhCACIJgwBANGEIQAgmjAEAEQThgCAaMIQABBNGAIAou1YN9m162vtqKvq7pJqo3erfXH1ZDvq6i+OfLEddbWyemxy9bW32jG/NXq3V/Xjr1Z9fFZWj00+uPlROx7G9Pb77YgtqrvPqo9/9ePfd2SPT4YAgGzCEAAQTRgCAKIJQwBANGEIAIgmDAEA0YQhACCaMAQARBOGAIBowhAAEE0YAgCi7Vg3WbVb09pulOruleputerjs35jvR0NZWX12OSdq++1427enr7ZjthBzy2+0I7Y4ujKwdJuvlv/8p/tqKuzP/7LdtRV9flteWm5HQ2l+vhUW1k95pMhACCbMAQARBOGAIBowhAAEE0YAgCiCUMAQDRhCACIJgwBANGEIQAgmjAEAEQThgCAaNu6ySq7mXRv7a4De/e3o67u3Lvbjoaysnps8s//9I/tmDlR3U1W3T339FPPtqOuqvf/1a9+rx11de36WjvqavHQM+2oq8OLtf9+9fGpfn+/eOVyO+pKNxkAEE8YAgCiCUMAQDRhCACIJgwBANGEIQAgmjAEAEQThgCAaMIQABBNGAIAoglDAEC0uekmq+5eqe6mqTZ6t1q16m4m+CR2opus8vw/utG7F6udPXW6HXVV3T2678genwwBANmEIQAgmjAEAEQThgCAaMIQABBNGAIAoglDAEA0YQgAiCYMAQDRhCEAIJowBABE29ZNBgCQZlsY+uDmR+393RxerC06vXjlcjsayvLScjvqanq7tuiuusjwFx++2466OnfhFUWtu6i6iLR6f6q9dOJ8O+pq35E9pUWt1eeHA3v3t6Ouqou6q98fR6eoFQCg2H1h6F9//A/bbpDkf/73/x55g3m2dvuNh95gXt0XhiaTyeTSpUuTS5cutWOIsLn/D7rBPNsMPO3eb+6+QMS8emAYAiaTM2fO3HeDebcZfNq998cA8+yxwpCvzkj1h3/w+/fdIMXxQy9OJluCEcyrR4ahzfDjawIS+b0QydqvxTbDEcybmWGo/b4YkjzoNxMCESketP9tOIJ58cAw1P5OwsejJGl3328mSGT/SXJfGPrr5//uvhuk8hshkvlajBT3hSFI52sx+A1fi5FiWx3Hwy7Hvnb7jY/fHM6cOfNEfy2cPHG8HQ2l+nLg1S4+/+/tqKvDf/vZdtRVdZ3CZh3HZvh50FcCm18X+LSI1nOLL7SjrqrPnxsLU/s/w+jPb7XqOqzquqrfqY7Db4dIsHmib38zlPxGQA77T6rHCkPHD7247QbzrL2ukGsMkaTdeftPgscKQwAA80oYAgCiCUMAQDRhCACIJgwBANGEIQAgmjAEAEQThgCAaMIQABDtsbrJRlDd7VLdTbZ+Y70dscVOdZPBk6jurnp7+mY76sr+z1b9/Farfn+sVv3++zt1kwEAzCNhCACIJgwBANGEIQAgmjAEAEQThgCAaMIQABBNGAIAoglDAEA0YQgAiCYMAQDRtnWTfXDzo/Z+fmt6u7YbZfHQM+2oqx9ef7UdsYVuJj7NXjpxvh11te/IHvs/w9NPPduOujqwd387Gkp199m162vtqKujKwd9MgQAZBOGAIBowhAAEE0YAgCiCUMAQDRhCACIJgwBANGEIQAgmjAEAEQThgCAaMIQABBtWzfZO1ffa+/vZvTukmp37t1tR1394sN321FX1d091VZWj+lmIta5C69Mrr72Vjvupvr8U23089vo3WfVdJMBAPGEIQAgmjAEAEQThgCAaMIQABBNGAIAoglDAEA0YQgAiCYMAQDRhCEAIJowBABEm5tusotXLrejoVR397x04nw76urw4jPtqKvz3/1KO+rq3IVXdJPxqfXqV7/XjrraWJgO3U323OIL7airt6dvtqOuqrvPRu8mWzxU+/6y78genwwBANmEIQAgmjAEAEQThgCAaMIQABBNGAIAoglDAEA0YQgAiCYMAQDRhCEAIJowBABE0032mKq7Xaq7b6q7e6q7Y9ZvrLejrlZWj+km41NLN9ls1ee30c/Po6t+f9FNBgDEE4YAgGjCEAAQTRgCAKIJQwBANGEIAIgmDAEA0YQhACCaMAQARBOGAIBowhAAEE032WNaXlpuR11Nb7/fjrr6ydd/3o66+sK3PteOutqJbhrdZHxavXTifDvqat+RPUN3k/33xcV21NUfnZ22o650k812597ddtTVyuoxnwwBANmEIQAgmjAEAEQThgCAaMIQABBNGAIAoglDAEA0YQgAiCYMAQDRhCEAIJowBABE29ZN9sHNj9r7u6nu3qruPrs1rX381cenupusurtnJ7qZdJPxafX0U8+2o65WVo8N3U32b3/+J+2oq/86+Go76ura9bV2xBa6yQAAiglDAEA0YQgAiCYMAQDRhCEAIJowBABEE4YAgGjCEAAQTRgCAKIJQwBANGEIAIi2Y91khxefaUdDGb2brNrb0zfbUVc70c1Uuf8/vF7bbcR824n9r+zmq3788EnoJgMA4glDAEA0YQgAiCYMAQDRhCEAIJowBABEE4YAgGjCEAAQTRgCAKIJQwBANGEIAIg2N91kF69cbkfMkV98+G476urchVcmCxuL7bib6v2sPj7VXjpxvh11NXo3XHW31+jdZAf27m9HXd25d7cdMUd0kwEA8YQhACCaMAQARBOGAIBowhAAEE0YAgCiCUMAQDRhCACIJgwBANGEIQAgmjAEAETbsW6y6e3329FQRu+mqe7uqfb29M121NW5C6+U7v/6jfV21FV1N1l1d1h1d+H5736lHXVVfXyq96e6m6zac4svtKOuRj//M5tuMgAgnjAEAEQThgCAaMIQABBNGAIAoglDAEA0YQgAiCYMAQDRhCEAIJowBABEE4YAgGjbusneufpee383J08cb0ddXbxyuR2xg5aXlttRVzvRzTTy/le7dn2tHQ2lutvu6aeebUddVXfPnbvwim6yGXSTzTfdZABAPGEIAIgmDAEA0YQhACCaMAQARBOGAIBowhAAEE0YAgCiCUMAQDRhCACIJgwBANG2dZN9cPOj9v5uDi8+0466Gr2b7MDe/e2ILaq7gVZWj02uvvZWOx5GdXdVdfdW9f5X70+16uf33IVXSrv5Rj/+1c6eOt2OhnJr+n476mp6u/bfP7py0CdDAEA2YQgAiCYMAQDRhCEAIJowBABEE4YAgGjCEAAQTRgCAKIJQwBANGEIAIgmDAEA0eamm6ya7rPZfvL1n7ejrg7/7WfbUVejd5Mx30bvJvurP619bX3jZwfbUVfLS8vtiB2kmwwAoJgwBABEE4YAgGjCEAAQTRgCAKIJQwBANGEIAIgmDAEA0YQhACCaMAQARBOGAIBo27rJKrtpTp443o7Y4tr1tXbU1Z17d9vRUKq71Y6uHCztJqvulqr29FPPtqOuRj8+1aqPf3U3X/Xrd/Tz2+iqn9/FQ7XdpvuO7PHJEACQTRgCAKIJQwBANGEIAIgmDAEA0YQhACCaMAQARBOGAIBowhAAEE0YAgCiCUMAQLRt3WQAAGm2haHKor5qZ0+dbkddXbxyuR0NZXlpuR11Nb39fjvqaieK+iqLiquLJBWd7q7qItVqK6vHht7/0YtCq8+fo6s+/opaAYB494Wh27+88cgbzLO122889Abzrt15+0+C+8LQZDKZXLp06aE3mGebJ/x27zd33xsC88z+k+qBYWjTmTNnPr5Bis0Tf7v//hgggf0n0QPDkAAEv3H80IvtCGLYf1LcF4YO/fHSx7dN/iIgla8FSGb/SXFfGGptDUI+LSLB1q8Ftv5ewv6T4GH7D/PskWFo0+YLZOsnRjCP/GaCVJtfi23dfX8EkOCxw9BEECKQ30yQpP1azP6T4ncKQ5CmfXOAeee/0pNoZh3H7V/e2PaVwSf5ZKi6LuPWdOzLmR9erL3ceLXqupLq/dlYmE4WNhYnL7/+pcnkIV+JbX5d8PrLP2jveqTq/ay+nH91nUK16rqGatXHf7OOY+t1hlqb+/8knxZVP/7q53f0x19t9ONzdOXgo8PQVsJQHWFotur92QxDk8nk40D0IE8ShCY7sJ/C0GzVJ9Nq1cd/azfZrE+DniQITXbg8Vc/v6M//mqjH59HhqGeqt/Mqt9sqglDs1Xvz9YwVKF6P4Wh2apPptWqj7+i1tlGf/zVRj8+R1cO+s0QAJBNGAIAoglDAEA0YQgAiCYMAQDRhCEAIJowBABEE4YAgGjCEAAQbdsVqD+4+VF7fzfVV1h2hd/ZlpeW21FX6zfW21FXO3EF0sorUF+7vtaOulo8VPv6qt5/dtfRlYOlDQTOP/Nt9POPK1ADAPGEIQAgmjAEAEQThgCAaMIQABBNGAIAoglDAEA0YQgAiCYMAQDRhCEAIJowBABE29ZN9s7V99r72SEnTxxvR0Op7oar7h5aWT1Wuv8/+frP21FXX/jW59pRV6N3D1V3/33jz+p2ZzKZTL7xs4PtqKuV1WOl3WTMVt19Vr3/Z0+dbkddVXc76iYDAOIJQwBANGEIAIgmDAEA0YQhACCaMAQARBOGAIBowhAAEE0YAgCiCUMAQDRhCACItq2b7IObH7X3dzN691C16m6Xi1cutyO2qO5mqn5+q7vhRuf8M9vK6rHJwsZiOx5GdXfV6N181Y+/WvXx0U0GAMQThgCAaMIQABBNGAIAoglDAEA0YQgAiCYMAQDRhCEAIJowBABEE4YAgGjCEAAQbVs32ZdPfa29v5vTn3+5HQ2lutvl8GLtv89sGwvTyTtX32vH3Zw8cbwdDWX07rPqbqPqbrLqbruNhWlpN1+1A3v3t6Ouqp/fastLy+2oq+rXVzXdZABAPGEIAIgmDAEA0YQhACCaMAQARBOGAIBowhAAEE0YAgCiCUMAQDRhCACIJgwBANF0kz0m3WSzXbxyuR11tRPdTLrJHk432WzV3VWj7z+zVb+/MNu+I3t8MgQAZBOGAIBowhAAEE0YAgCiCUMAQDRhCACIJgwBANGEIQAgmjAEAEQThgCAaMIQABBtx7rJvrn67XbUVXX3UHV3THU3WXV32IG9+9tRV5d/+no76ur7V75T2s1U3V21vLTcjtii+vxQ/fz+x80ftaOuqvd/dNXPb/X5c/THX/3+q5sMAIgnDAEA0YQhACCaMAQARBOGAIBowhAAEE0YAgCiCUMAQDRhCACIJgwBANGEIQAg2rZusoWNxfb+YVy7vtaOuqruRlm/sd6O2GL0bqbq/alW3e3l+Mw2ejcfs1Xvf/V+njxxvB0NZWNh6pMhACCbMAQARBOGAIBowhAAEE0YAgCiCUMAQDRhCACIJgwBANGEIQAgmjAEAEQThgCAaHPTTVbt1rS226VadTdNNd1Mu6u6O+nwYu2/X626G3H0/b9z7247GsqBvfvbUVfVr6/q879uMgCAwQlDAEA0YQgAiCYMAQDRhCEAIJowBABEE4YAgGjCEAAQTRgCAKIJQwBANGEIAIg2N91k1d1h6zfW21FX1d031d1A1Y+/uvtmY2Fa2s1U3T1UvZ9nT51uR11Vd3vZ/9lG3/9q1d1e1cen+vFX72c13WQAQDxhCACIJgwBANGEIQAgmjAEAEQThgCAaMIQABBNGAIAoglDAEA0YQgAiCYMAQDR5qabrLrbaPTumNFVd9+M3s1U3U3G7qruhqve/9GN/vodvTuvmm4yACCeMAQARBOGAIBowhAAEE0YAgCiCUMAQDRhCACIJgwBANGEIQAgmjAEAEQThgCAaDvWTVbdHXbn3t12NJTq7pjRVT+/K6vHSruZqruNqrvtqh9/dTfT6HST7a7R9395abkddTX6+WffkT0+GQIAsglDAEA0YQgAiCYMAQDRhCEAIJowBABEE4YAgGjCEAAQTRgCAKIJQwBANGEIAIi2Y91k1W5Na7tRqrtX2F1HVw5Orr72VjvuZvTuuepuoGqHF2sff/X5p/rx6ybbXSdPHG9H7KCNhalPhgCAbMIQABBNGAIAoglDAEA0YQgAiCYMAQDRhCEAIJowBABEE4YAgGjCEAAQTRgCAKLpJntM1d1A1a5dX2tHQ6nu7tHNtLuqu89G7xYcff89v7NVP7/MppsMAIgnDAEA0YQhACCaMAQARBOGAIBowhAAEE0YAgCiCUMAQDRhCACIJgwBANGEIQAg2tx0k31x9WQ76upHr11rR11Vd4eN3g1U3d1T3c1U/firu/mqn99qd+7dbUddHdi7vx11Vb0/1fs/uurjz+7STQYAxBOGAIBowhAAEE0YAgCiCUMAQDRhCACIJgwBANGEIQAgmjAEAEQThgCAaMIQABBtWzcZAECa/wfVZojZBLysgQAAAABJRU5ErkJggg==;" vertex="1" parent="1">
          <mxGeometry x="930" y="320" width="145" height="145" as="geometry" />
        </mxCell>
        <mxCell id="MRhIiRHVBGv19Umoxs4_-7" value="1&lt;span style=&quot;white-space: pre;&quot;&gt;&#x9;&lt;span style=&quot;white-space: pre;&quot;&gt;&#x9;&lt;/span&gt;&lt;/span&gt;2&lt;span style=&quot;white-space: pre;&quot;&gt;&#x9;&lt;/span&gt;&lt;span style=&quot;white-space: pre;&quot;&gt;&#x9;&lt;/span&gt;3&lt;div&gt;&lt;br&gt;&lt;div&gt;&lt;br&gt;&lt;div&gt;&lt;br&gt;&lt;div&gt;4&lt;span style=&quot;white-space: pre;&quot;&gt;&#x9;&lt;span style=&quot;white-space: pre;&quot;&gt;&#x9;&lt;/span&gt;&lt;/span&gt;5&lt;span style=&quot;white-space: pre;&quot;&gt;&#x9;&lt;/span&gt;&lt;span style=&quot;white-space: pre;&quot;&gt;&#x9;&lt;/span&gt;6&lt;/div&gt;&lt;div&gt;&lt;br&gt;&lt;/div&gt;&lt;div&gt;&lt;br&gt;&lt;/div&gt;&lt;div&gt;&lt;br&gt;&lt;/div&gt;&lt;div&gt;7&lt;span style=&quot;white-space: pre;&quot;&gt;&#x9;&lt;span style=&quot;white-space: pre;&quot;&gt;&#x9;&lt;/span&gt;&lt;/span&gt;8&lt;span style=&quot;white-space: pre;&quot;&gt;&#x9;&lt;/span&gt;&lt;span style=&quot;white-space: pre;&quot;&gt;&#x9;&lt;/span&gt;9&lt;/div&gt;&lt;/div&gt;&lt;/div&gt;&lt;/div&gt;" style="rounded=0;whiteSpace=wrap;html=1;fillColor=none;strokeColor=none;fontColor=#FFFFFF;" vertex="1" parent="1">
          <mxGeometry x="930" y="320" width="150" height="150" as="geometry" />
        </mxCell>
        <mxCell id="MRhIiRHVBGv19Umoxs4_-8" value="" style="endArrow=classic;startArrow=classic;html=1;rounded=0;" edge="1" parent="1">
          <mxGeometry width="50" height="50" relative="1" as="geometry">
            <mxPoint x="930" y="480" as="sourcePoint" />
            <mxPoint x="1270" y="480" as="targetPoint" />
          </mxGeometry>
        </mxCell>
        <mxCell id="MRhIiRHVBGv19Umoxs4_-9" value="une ligne = 20 tiles" style="text;html=1;align=left;verticalAlign=middle;whiteSpace=wrap;rounded=0;" vertex="1" parent="1">
          <mxGeometry x="1040" y="480" width="270" height="30" as="geometry" />
        </mxCell>
        <mxCell id="MRhIiRHVBGv19Umoxs4_-10" value="" style="endArrow=classic;html=1;rounded=0;entryX=0.5;entryY=1;entryDx=0;entryDy=0;" edge="1" parent="1">
          <mxGeometry width="50" height="50" relative="1" as="geometry">
            <mxPoint x="930" y="240" as="sourcePoint" />
            <mxPoint x="930" y="320" as="targetPoint" />
          </mxGeometry>
        </mxCell>
        <mxCell id="MRhIiRHVBGv19Umoxs4_-11" value="position x,y" style="text;html=1;align=left;verticalAlign=middle;whiteSpace=wrap;rounded=0;" vertex="1" parent="1">
          <mxGeometry x="940" y="240" width="270" height="30" as="geometry" />
        </mxCell>
        <mxCell id="MRhIiRHVBGv19Umoxs4_-12" value="..." style="rounded=0;whiteSpace=wrap;html=1;strokeColor=none;fillColor=none;" vertex="1" parent="1">
          <mxGeometry x="150" y="625" width="80" height="20" as="geometry" />
        </mxCell>
        <mxCell id="MRhIiRHVBGv19Umoxs4_-13" value="Les données sont stockées dans le main.asm&lt;div&gt;(mémoire résidente)&lt;/div&gt;" style="text;html=1;align=center;verticalAlign=middle;whiteSpace=wrap;rounded=0;" vertex="1" parent="1">
          <mxGeometry x="550" y="250" width="160" height="60" as="geometry" />
        </mxCell>
      </root>
    </mxGraphModel>
  </diagram>
</mxfile>
